<svg width="24" height="27" viewBox="0 0 24 27" fill="none" xmlns="http://www.w3.org/2000/svg">
<path fill-rule="evenodd" clip-rule="evenodd" d="M19.273 16.1411C19.273 16.1411 15.6357 19.7784 12.3803 23.0338C11.2474 24.1681 9.70879 24.804 8.10564 24.804C6.50248 24.804 4.9653 24.1681 3.83242 23.0338C3.83102 23.0338 3.83102 23.0324 3.82961 23.0324C2.72621 21.929 2.10572 20.4311 2.10572 18.8715C2.10572 17.3105 2.72621 15.8126 3.82961 14.7092C7.3925 11.1477 12.1262 6.41404 15.303 3.2372C16.8107 1.7295 19.2547 1.7295 20.7624 3.2372C20.7638 3.2372 20.7639 3.2386 20.7639 3.2386C22.2716 4.7449 22.2716 7.18754 20.7639 8.69384C17.2122 12.2469 11.8356 17.6235 9.09673 20.3624C8.54924 20.9084 7.66343 20.9084 7.11595 20.3624C7.11454 20.361 7.11314 20.3596 7.11173 20.3581C6.84922 20.0956 6.70182 19.7391 6.70182 19.3671C6.70182 18.995 6.84922 18.6399 7.11173 18.376C10.4163 15.0714 17.288 8.19969 17.288 8.19969C17.6993 7.78837 17.6993 7.12156 17.288 6.71024C16.8781 6.30033 16.2099 6.30033 15.8 6.71024C15.8 6.71024 8.92827 13.5833 5.62229 16.8879C4.9653 17.5449 4.5961 18.4377 4.5961 19.3671C4.5961 20.2978 4.9653 21.1892 5.62229 21.8462C5.62369 21.8476 5.62509 21.849 5.6265 21.8504C6.99662 23.2205 9.21606 23.2205 10.5862 21.8504C13.3236 19.113 18.7002 13.7363 22.2533 10.1833C24.5822 7.85435 24.5822 4.07809 22.2533 1.74916L22.2519 1.74775C19.9216 -0.582584 16.1439 -0.582584 13.8136 1.74775C10.6367 4.92459 5.90305 9.65826 2.34157 13.2211C0.84229 14.719 0 16.7517 0 18.8715C0 20.9899 0.84229 23.0226 2.34157 24.5205C2.34157 24.5219 2.34297 24.5219 2.34297 24.5233C3.87173 26.052 5.94516 26.9098 8.10564 26.9098C10.2675 26.9098 12.341 26.052 13.8697 24.5233C17.1252 21.2678 20.7624 17.6305 20.7624 17.6305C21.1738 17.2192 21.1738 16.5524 20.7624 16.1411C20.3511 15.7298 19.6843 15.7298 19.273 16.1411V16.1411Z" fill="#7B7474"/>
</svg>
