<svg width="47" height="47" viewBox="0 0 47 47" fill="none" xmlns="http://www.w3.org/2000/svg">
<path d="M23.5 0C10.5405 0 0 10.5405 0 23.5C0 36.4595 10.5405 47 23.5 47C36.4595 47 47 36.4595 47 23.5C47 10.5405 36.4595 0 23.5 0ZM23.5 43.8667C12.2701 43.8667 3.13333 34.7299 3.13333 23.5C3.13333 12.2701 12.2701 3.13333 23.5 3.13333C34.7299 3.13333 43.8667 12.2701 43.8667 23.5C43.8667 34.7299 34.7299 43.8667 23.5 43.8667Z" fill="#E88C03"/>
<path fill-rule="evenodd" clip-rule="evenodd" d="M39.1667 25.2755V19.6356H16.3788L24.9243 11.1756L22.0758 8.35553L7.83337 22.4556L22.0758 36.5555L24.9243 33.7355L16.3788 25.2755H27.7728H39.1667Z" fill="#E88C03"/>
</svg>
