<svg width="23" height="27" viewBox="0 0 23 27" fill="none" xmlns="http://www.w3.org/2000/svg">
<path d="M2.14286 18.9501H0V19.9474H2.14286V18.9501Z" fill="#E88C03"/>
<path d="M2.14286 14.9606H0V15.958H2.14286V14.9606Z" fill="#E88C03"/>
<path d="M2.14286 22.9396H0V23.937H2.14286V22.9396Z" fill="#E88C03"/>
<path d="M17.1429 10.5722V0H12.8572V10.5722L15 8.57741L17.1429 10.5722Z" fill="#E88C03"/>
<path d="M2.14286 6.98166H0V7.97903H2.14286V6.98166Z" fill="#E88C03"/>
<path d="M2.14286 10.9711H0V11.9685H2.14286V10.9711Z" fill="#E88C03"/>
<path d="M20.3571 3.05176e-05H18.2143V12.9659L15 9.97376L11.7857 12.9659V3.05176e-05H4.28568C3.10708 3.05176e-05 2.14282 0.89764 2.14282 1.99478V2.99215H4.28568V3.98952H2.14282V6.98164H4.28568V7.97902H2.14282V10.9711H4.28568V11.9685H2.14282V14.9606H4.28568V15.958H2.14282V18.9501H4.28568V19.9475H2.14282V22.9396H4.28568V23.937H2.14282V24.9344C2.14282 26.0314 3.10708 26.9291 4.28568 26.9291H20.3571C21.5357 26.9291 22.5 26.0314 22.5 24.9344V1.99478C22.5 0.89764 21.5357 3.05176e-05 20.3571 3.05176e-05Z" fill="#E88C03"/>
<path d="M2.14286 2.99213H0V3.9895H2.14286V2.99213Z" fill="#E88C03"/>
</svg>
