<svg width="29" height="27" viewBox="0 0 29 27" fill="none" xmlns="http://www.w3.org/2000/svg">
<path d="M12.5667 9.64474V13.5015H0V9.64474H12.5667ZM16.4333 9.64474V13.5015H29V9.64474H16.4333ZM1.93333 15.4298V24.1075C1.93333 25.7049 3.23176 27 4.83333 27H12.5667V15.4298H1.93333ZM16.4333 15.4298V27H24.1667C25.7682 27 27.0667 25.7049 27.0667 24.1075V15.4298H16.4333ZM20.3 0.00292427C17.587 -0.082695 15.1772 1.71994 14.5 4.34174C13.8228 1.71994 11.413 -0.082695 8.7 0.00292427C6.62959 -0.0620616 4.89849 1.5595 4.83333 3.62458C4.83082 3.70287 4.83082 3.78136 4.83333 3.85965C4.53231 5.67752 5.76559 7.39453 7.58814 7.69478C7.89825 7.74588 8.21396 7.75321 8.526 7.71637H20.3773C22.2233 8.00505 23.9546 6.7466 24.244 4.9054C24.2985 4.55887 24.2985 4.20618 24.244 3.85965C24.2444 1.72958 22.5137 0.00253859 20.3781 0.00215292C20.352 0.00215292 20.3261 0.00234576 20.3 0.00292427ZM8.7 5.78801C7.72173 5.8773 6.85618 5.15859 6.76667 4.18304C6.75681 4.07543 6.75681 3.96725 6.76667 3.85965C6.67715 2.8839 7.39771 2.02057 8.37578 1.93129C8.48366 1.92145 8.59212 1.92145 8.7 1.93129C10.8356 1.93129 12.5667 3.65794 12.5667 5.78801H8.7ZM20.3 5.78801H16.4333C16.4333 3.65794 18.1644 1.93129 20.3 1.93129C21.3678 1.93129 22.2333 2.79461 22.2333 3.85965C22.3228 4.8354 21.6023 5.69873 20.6242 5.78801C20.5163 5.79785 20.4079 5.79785 20.3 5.78801Z" fill="#7B7474"/>
</svg>
