<svg width="28" height="17.33" viewBox="0 0 30 19" fill="none" xmlns="http://www.w3.org/2000/svg">
<path d="M28.9743 18.0115C28.9896 17.9668 29 17.9195 29 17.8698V1.46293C29 1.4129 28.9896 1.36534 28.974 1.32025C28.9717 1.31407 28.9704 1.3079 28.9678 1.30172C28.9471 1.24891 28.9165 1.20135 28.8782 1.15966C28.8756 1.15688 28.8753 1.15349 28.8727 1.15071L28.8675 1.147C28.8266 1.10562 28.7782 1.07226 28.7239 1.04725C28.7197 1.0454 28.7164 1.04293 28.7122 1.04107C28.6609 1.01915 28.605 1.00679 28.5462 1.00309C28.5404 1.00278 28.5349 1.00154 28.529 1.00154C28.5235 1.00124 28.5186 1 28.5131 1H1.48754C1.48201 1 1.47682 1.00124 1.4713 1.00154C1.4661 1.00185 1.4609 1.00278 1.4557 1.00309C1.39626 1.00679 1.33942 1.01946 1.28745 1.04169C1.28421 1.04293 1.28161 1.04509 1.27836 1.04632C1.22314 1.07134 1.1741 1.10531 1.13285 1.14731L1.12765 1.15071C1.12505 1.15318 1.12473 1.15657 1.12213 1.15935C1.0838 1.20104 1.05294 1.24891 1.03216 1.30172C1.02956 1.3079 1.02826 1.31407 1.02598 1.32056C1.01039 1.36565 1 1.41321 1 1.46324V17.8704C1 17.9211 1.01072 17.9692 1.02663 18.0149C1.02891 18.0211 1.03021 18.027 1.03248 18.0332C1.05359 18.0863 1.08477 18.1341 1.12343 18.1758C1.1257 18.1783 1.12635 18.1814 1.12862 18.1839C1.13057 18.186 1.13317 18.1873 1.13544 18.1894C1.15136 18.2052 1.1689 18.2191 1.18709 18.2327C1.19521 18.2385 1.20235 18.2456 1.2108 18.2512C1.23224 18.2654 1.2553 18.2768 1.27901 18.2873C1.28486 18.2898 1.29005 18.2938 1.2959 18.296C1.35469 18.3197 1.41933 18.3333 1.48721 18.3333H28.5125C28.5804 18.3333 28.645 18.3201 28.7038 18.296C28.7129 18.2923 28.7213 18.2867 28.7301 18.2824C28.7502 18.2728 28.7704 18.2629 28.7889 18.2509C28.7986 18.2444 28.8074 18.2361 28.8168 18.229C28.8334 18.2163 28.8496 18.2036 28.8639 18.1891C28.8665 18.1866 28.8694 18.1848 28.872 18.1823C28.8746 18.1795 28.8753 18.1758 28.8779 18.1731C28.9159 18.1317 28.9464 18.0841 28.9672 18.0316C28.9704 18.0248 28.9721 18.0183 28.9743 18.0115ZM1.97475 2.51354L10.1752 9.63532L1.97475 16.8139V2.51354ZM18.7822 9.28635C18.7484 9.30735 18.7127 9.32495 18.6845 9.3546C18.6737 9.36572 18.6702 9.38023 18.6607 9.39197L15.0002 12.571L2.74324 1.92616H27.2571L18.7822 9.28635ZM10.8975 10.2625L14.6715 13.5401C14.7647 13.621 14.8823 13.6615 15.0002 13.6615C15.1181 13.6615 15.2356 13.621 15.3285 13.5401L19.0557 10.3033L27.2548 17.4069H2.73609L10.8975 10.2625ZM19.7784 9.67578L28.0256 2.51354V16.8213L19.7784 9.67578Z" fill="#F6F2F2" stroke="#F6F2F2"/>
</svg>
