<svg width="40" height="40" viewBox="0 0 40 40" fill="none" xmlns="http://www.w3.org/2000/svg">
<path fill-rule="evenodd" clip-rule="evenodd" d="M21.6419 3.43332L12.5036 12.6667C11.8932 13.2833 11.5468 14.1333 11.5468 15.0167V31.6667C11.5468 33.5 13.0314 35 14.8459 35H29.6916C31.0113 35 32.1989 34.2 32.7268 32.9833L38.1042 20.3C39.4898 17 37.098 13.3333 33.5515 13.3333H24.2317L25.7988 5.69999C25.9637 4.86666 25.7163 4.01666 25.1224 3.41666C24.1492 2.44999 22.5987 2.44999 21.6419 3.43332ZM4.94872 35C6.7632 35 8.24777 33.5 8.24777 31.6667V18.3333C8.24777 16.5 6.7632 15 4.94872 15C3.13423 15 1.64966 16.5 1.64966 18.3333V31.6667C1.64966 33.5 3.13423 35 4.94872 35Z" fill="#E88C03"/>
</svg>
