<svg width="38" height="39" viewBox="0 0 38 39" fill="none" xmlns="http://www.w3.org/2000/svg">
<path d="M15.9012 29.7705C16.5197 29.8709 17.1543 29.9231 17.8009 29.9231H21.4252L20.5943 29.5813L29.0825 37.9598C29.7981 38.6661 31.0064 38.2173 31.0961 37.2119L31.9386 27.7743L31.2711 28.7454C35.3489 26.7658 38 22.5994 38 17.9539C38 15.2267 37.0962 12.7126 35.5744 10.7C35.6079 11.1186 35.625 11.5419 35.625 11.9692C35.625 13.123 35.5005 14.2474 35.2643 15.3294C35.4992 16.1634 35.625 17.0438 35.625 17.9539C35.625 21.6711 33.5041 25.0044 30.2406 26.5886C29.8641 26.7714 29.6106 27.1402 29.5731 27.5597L28.7307 36.9974L30.7443 36.2495L22.2561 27.871C22.0341 27.652 21.7358 27.5293 21.4252 27.5293H18.9961H18.1248L15.9012 29.7705ZM2.375 12.4056C2.375 6.87509 6.80762 2.39385 12.276 2.39385H20.974C26.4375 2.39385 30.875 6.87845 30.875 12.4056C30.875 17.9361 26.4424 22.4174 20.974 22.4174H17.1922C16.868 22.4174 16.5568 22.5456 16.3252 22.7747L7.46795 31.535L9.56908 32.317L8.68999 22.4492C8.65091 22.0106 8.38641 21.625 7.99353 21.4339C4.58813 19.7774 2.375 16.2923 2.375 12.4056ZM6.28591 22.5955L7.15959 32.3822C7.25266 33.4248 8.5057 33.8902 9.24775 33.1577L18.0503 24.4694L17.1887 24.8238H20.9472C27.7426 24.8238 33.25 19.2674 33.25 12.4119C33.25 5.55954 27.7376 0 20.9472 0H12.3028C5.50742 0 0 5.55639 0 12.4119C0 17.2292 2.74924 21.5497 6.97807 23.6025L6.28591 22.5955Z" fill="#E88C03"/>
</svg>
