<svg width="68" height="68" viewBox="0 0 68 68" fill="none" xmlns="http://www.w3.org/2000/svg">
<path d="M34 0C15.2501 0 0 15.2501 0 34C0 52.7499 15.2501 68 34 68C52.7499 68 68 52.7499 68 34C68 15.2501 52.7499 0 34 0ZM34 63.4667C17.7525 63.4667 4.53333 50.2475 4.53333 34C4.53333 17.7525 17.7525 4.53333 34 4.53333C50.2475 4.53333 63.4667 17.7525 63.4667 34C63.4667 50.2475 50.2475 63.4667 34 63.4667Z" fill="#E88C03"/>
<path d="M36.2662 15.8667H31.7329V31.7334H15.8662V36.2667H31.7329V52.1334H36.2662V36.2667H52.1329V31.7334H36.2662V15.8667Z" fill="#E88C03"/>
</svg>
