<svg width="28" height="22" viewBox="0 0 28 22" fill="none" xmlns="http://www.w3.org/2000/svg">
<path d="M26.9866 6.26919C27.011 6.34168 26.9866 6.26253 26.9866 6.26919V6.26919ZM26.9866 10.1874V6.26919C26.9866 5.83622 26.597 5.48554 26.1161 5.48554V0.391824C26.1161 0.175537 25.9211 0 25.6808 0H3.48214C1.55913 0 0 1.40351 0 3.1346C0 3.24039 0.00609375 3.345 0.0174107 3.44805C0.011317 3.47431 0 3.4986 0 3.52642V18.8076C0 20.5387 1.55913 21.9422 3.48214 21.9422H26.1161C26.597 21.9422 26.9866 21.5915 26.9866 21.1585V17.2403C27.4676 17.2403 27.8571 16.8896 27.8571 16.4566V10.9711C27.8571 10.5381 27.4671 10.1874 26.9866 10.1874ZM3.48214 0.783649H25.2455V5.48554H24.375V2.35095C24.375 1.91798 23.985 1.5673 23.5045 1.5673H3.48214C3.00117 1.5673 2.61161 1.91798 2.61161 2.35095V5.34879C1.59787 5.02593 0.870536 4.15765 0.870536 3.1346C0.870536 1.83609 2.03967 0.783649 3.48214 0.783649ZM3.48214 3.1346V2.35095H23.5045V3.1346H3.48214ZM23.5045 3.91824V5.48554H3.48214V3.91824H23.5045ZM26.1161 21.1585H3.48214C2.03967 21.1585 0.870536 20.1061 0.870536 18.8076V5.20304C1.50864 5.85542 2.44055 6.26919 3.48214 6.26919H26.1161V10.1874H23.9397C21.776 10.1874 20.0223 11.7661 20.0223 13.7139C20.0223 15.6616 21.776 17.2403 23.9397 17.2403H26.1161V21.1585ZM26.9866 16.4566H23.9397C22.257 16.4566 20.8929 15.2286 20.8929 13.7139C20.8929 12.1991 22.257 10.9711 23.9397 10.9711H26.9866V16.4566ZM22.6339 13.7139C22.6339 14.3631 23.2185 14.8893 23.9397 14.8893C24.661 14.8893 25.2455 14.3631 25.2455 13.7139C25.2455 13.0646 24.661 12.5384 23.9397 12.5384C23.2185 12.5384 22.6339 13.0646 22.6339 13.7139ZM24.375 13.7139C24.375 13.9301 24.18 14.1057 23.9397 14.1057C23.6995 14.1057 23.5045 13.9301 23.5045 13.7139C23.5045 13.4976 23.6995 13.322 23.9397 13.322C24.18 13.322 24.375 13.4976 24.375 13.7139Z" fill="#E88C03"/>
</svg>
