<svg width="34" height="31" viewBox="0 0 34 31" fill="none" xmlns="http://www.w3.org/2000/svg">
<path d="M32.3192 13.4331L29.2177 10.547V6.45016C29.2177 5.70339 28.8989 4.98721 28.3314 4.45917C27.7639 3.93112 26.9943 3.63447 26.1918 3.63447H21.8042L18.7026 0.818782C18.1357 0.294357 17.3687 0 16.5693 0C15.7699 0 15.003 0.294357 14.436 0.818782L11.3345 3.64855H6.93176C6.12923 3.64855 5.35958 3.9452 4.79211 4.47325C4.22464 5.00129 3.90584 5.71747 3.90584 6.46424V10.547L0.879916 13.4331C0.316335 13.9606 0 14.6743 0 15.4181C0 16.162 0.316335 16.8756 0.879916 17.4032L3.99662 20.2189V24.3157C3.99662 25.0625 4.31542 25.7787 4.88289 26.3067C5.45036 26.8348 6.22001 27.1314 7.02254 27.1314H11.3345L14.436 29.9471C14.7028 30.2345 15.0294 30.4688 15.396 30.6357C15.7626 30.8026 16.1617 30.8988 16.5693 30.9185C17.3684 30.9191 18.1353 30.6256 18.7026 30.102L21.8042 27.2018H26.2069C27.0094 27.2018 27.7791 26.9051 28.3465 26.3771C28.914 25.8491 29.2328 25.1329 29.2328 24.3861V20.2893L32.3344 17.4736C32.898 16.946 33.2143 16.2324 33.2143 15.4885C33.2143 14.7447 32.898 14.031 32.3344 13.5035L32.3192 13.4331ZM26.1918 19.1348V24.372H20.5635L16.5693 28.1028L12.5751 24.372H6.94689V19.1348L2.95267 15.4322L6.94689 11.7014V6.46424H12.5751L16.5693 2.76161L20.5635 6.47832H26.1918V11.7014L30.186 15.4322L26.1918 19.1348Z" fill="#E88C03"/>
<path d="M16.6072 8.24493C15.0744 8.24493 13.576 8.66805 12.3015 9.46077C11.027 10.2535 10.0337 11.3802 9.44711 12.6985C8.86054 14.0167 8.70706 15.4673 9.0061 16.8667C9.30513 18.2661 10.0432 19.5516 11.1271 20.5605C12.211 21.5695 13.5919 22.2566 15.0952 22.5349C16.5986 22.8133 18.1568 22.6704 19.573 22.1244C20.9891 21.5784 22.1995 20.6537 23.0511 19.4673C23.9027 18.2809 24.3572 16.8861 24.3572 15.4593C24.3572 13.5459 23.5407 11.7109 22.0873 10.358C20.6338 9.00501 18.6626 8.24493 16.6072 8.24493ZM16.6072 19.7878C15.6875 19.7878 14.7885 19.534 14.0238 19.0583C13.2591 18.5827 12.6631 17.9067 12.3111 17.1157C11.9592 16.3248 11.8671 15.4544 12.0465 14.6148C12.2259 13.7751 12.6688 13.0038 13.3191 12.3985C13.9694 11.7931 14.798 11.3809 15.7 11.2138C16.602 11.0468 17.537 11.1325 18.3867 11.4602C19.2363 11.7878 19.9626 12.3426 20.4735 13.0544C20.9845 13.7662 21.2572 14.6031 21.2572 15.4593C21.2572 16.6073 20.7673 17.7083 19.8952 18.52C19.0232 19.3318 17.8404 19.7878 16.6072 19.7878Z" fill="#E88C03"/>
</svg>
