<svg width="40" height="37" viewBox="0 0 40 37" fill="none" xmlns="http://www.w3.org/2000/svg">
<path fill-rule="evenodd" clip-rule="evenodd" d="M26.4286 16.9138C29.1706 16.9138 31.3675 14.8534 31.3675 12.3009C31.3675 9.74848 29.1706 7.68808 26.4286 7.68808C23.6867 7.68808 21.4733 9.74848 21.4733 12.3009C21.4733 14.8534 23.6867 16.9138 26.4286 16.9138ZM13.2144 16.9138C15.9563 16.9138 18.1532 14.8534 18.1532 12.3009C18.1532 9.74848 15.9563 7.68808 13.2144 7.68808C10.4724 7.68808 8.259 9.74848 8.259 12.3009C8.259 14.8534 10.4724 16.9138 13.2144 16.9138ZM13.2144 19.989C9.36569 19.989 1.65186 21.788 1.65186 25.3706V27.6771C1.65186 28.5227 2.39516 29.2147 3.30364 29.2147H23.1251C24.0336 29.2147 24.7769 28.5227 24.7769 27.6771V25.3706C24.7769 21.788 17.063 19.989 13.2144 19.989ZM26.4286 19.989C25.9496 19.989 25.4045 20.0197 24.8264 20.0659C24.8594 20.0812 24.876 20.112 24.8925 20.1274C26.7755 21.4036 28.0804 23.1103 28.0804 25.3706V27.6771C28.0804 28.2152 27.9648 28.738 27.7831 29.2147H36.3394C37.2478 29.2147 37.9911 28.5227 37.9911 27.6771V25.3706C37.9911 21.788 30.2773 19.989 26.4286 19.989Z" fill="#E88C03"/>
</svg>
